# xmcd CD database file
#
# Track frame offsets:
#	150
#	17697
#	35687
#	55647
#	71987
#	92207
#	106415
#	124380
#	142617
#	161695
#	185945
#	215322
#	233557
#	251690
#
# Disc length: 3602 seconds
#
# Revision: 0
# Processed by: cddbd v1.5.1PL0 Copyright (c) Steve Scherf et al.
# Submitted via: CDex 1.51
#
DISCID=c70e100e
DTITLE=アライブ・アンド・ウェル - 山本達彦
DYEAR=1988
DGENRE=JPop
TTITLE0=WONDERFUL KNIGHT
TTITLE1=STARDUST MERMAID
TTITLE2=WEAKEND BACHELORS
TTITLE3=MAGIC
TTITLE4=THE WAY TO DREAM
TTITLE5=ペーパームーンの気分に
TTITLE6=FEEL SO BAD
TTITLE7=FROM THE NIGHT
TTITLE8=FAIRY PRINCESS
TTITLE9=架空の都
TTITLE10=SHAKE SHAKE SHAKE
TTITLE11=MON AMOUR
TTITLE12=MISSING LOVE
TTITLE13=摩天楼ブルース
EXTD=YEAR: 1988
EXTT0=
EXTT1=
EXTT2=
EXTT3=
EXTT4=
EXTT5=
EXTT6=
EXTT7=
EXTT8=
EXTT9=
EXTT10=
EXTT11=
EXTT12=
EXTT13=
PLAYORDER=
